<svg xmlns="http://www.w3.org/2000/svg" version="1.1" xmlns:xlink="http://www.w3.org/1999/xlink" xmlns:svgjs="http://svgjs.com/svgjs" width="512" height="512" x="0" y="0" viewBox="0 0 512 512" style="enable-background:new 0 0 512 512" xml:space="preserve" class=""><g>
<g xmlns="http://www.w3.org/2000/svg">
	<g>
		<path d="M469.333,21.333H42.667C19.136,21.333,0,40.469,0,64v384c0,23.531,19.136,42.667,42.667,42.667h426.667    C492.864,490.667,512,471.531,512,448V64C512,40.469,492.864,21.333,469.333,21.333z M490.667,448    c0,11.765-9.568,21.333-21.333,21.333H42.667c-11.765,0-21.333-9.568-21.333-21.333V64c0-11.765,9.568-21.333,21.333-21.333    h426.667c11.765,0,21.333,9.568,21.333,21.333V448z" fill="#000000" data-original="#000000" class=""></path>
	</g>
</g>
<g xmlns="http://www.w3.org/2000/svg">
	<g>
		<path d="M74.667,64H64c-5.888,0-10.667,4.779-10.667,10.667S58.112,85.333,64,85.333h10.667c5.888,0,10.667-4.779,10.667-10.667    S80.555,64,74.667,64z" fill="#000000" data-original="#000000" class=""></path>
	</g>
</g>
<g xmlns="http://www.w3.org/2000/svg">
	<g>
		<path d="M128,64h-10.667c-5.888,0-10.667,4.779-10.667,10.667s4.779,10.667,10.667,10.667H128c5.888,0,10.667-4.779,10.667-10.667    S133.888,64,128,64z" fill="#000000" data-original="#000000" class=""></path>
	</g>
</g>
<g xmlns="http://www.w3.org/2000/svg">
	<g>
		<path d="M448,64h-10.667c-5.888,0-10.667,4.779-10.667,10.667s4.779,10.667,10.667,10.667H448c5.888,0,10.667-4.779,10.667-10.667    S453.888,64,448,64z" fill="#000000" data-original="#000000" class=""></path>
	</g>
</g>
<g xmlns="http://www.w3.org/2000/svg">
	<g>
		<path d="M458.667,106.667H53.333c-5.888,0-10.667,4.779-10.667,10.667S47.445,128,53.333,128h405.333    c5.888,0,10.667-4.779,10.667-10.667S464.555,106.667,458.667,106.667z" fill="#000000" data-original="#000000" class=""></path>
	</g>
</g>
<g xmlns="http://www.w3.org/2000/svg">
	<g>
		<path d="M117.333,170.667c-23.531,0-42.667,19.136-42.667,42.667v21.333c0,23.531,19.136,42.667,42.667,42.667    c23.531,0,42.667-19.136,42.667-42.667v-21.333C160,189.803,140.864,170.667,117.333,170.667z M138.667,234.667    c0,11.765-9.568,21.333-21.333,21.333C105.568,256,96,246.432,96,234.667v-21.333C96,201.568,105.568,192,117.333,192    c11.765,0,21.333,9.568,21.333,21.333V234.667z" fill="#000000" data-original="#000000" class=""></path>
	</g>
</g>
<g xmlns="http://www.w3.org/2000/svg">
	<g>
		<path d="M309.333,170.667c-23.531,0-42.667,19.136-42.667,42.667v21.333c0,23.531,19.136,42.667,42.667,42.667    c23.531,0,42.667-19.136,42.667-42.667v-21.333C352,189.803,332.864,170.667,309.333,170.667z M330.667,234.667    c0,11.765-9.568,21.333-21.333,21.333C297.568,256,288,246.432,288,234.667v-21.333c0-11.765,9.568-21.333,21.333-21.333    c11.765,0,21.333,9.568,21.333,21.333V234.667z" fill="#000000" data-original="#000000" class=""></path>
	</g>
</g>
<g xmlns="http://www.w3.org/2000/svg">
	<g>
		<path d="M309.333,320c-23.531,0-42.667,19.136-42.667,42.667V384c0,23.531,19.136,42.667,42.667,42.667    C332.864,426.667,352,407.531,352,384v-21.333C352,339.136,332.864,320,309.333,320z M330.667,384    c0,11.765-9.568,21.333-21.333,21.333C297.568,405.333,288,395.765,288,384v-21.333c0-11.765,9.568-21.333,21.333-21.333    c11.765,0,21.333,9.568,21.333,21.333V384z" fill="#000000" data-original="#000000" class=""></path>
	</g>
</g>
<g xmlns="http://www.w3.org/2000/svg">
	<g>
		<path d="M213.333,170.667H192c-5.888,0-10.667,4.779-10.667,10.667S186.112,192,192,192h10.667v74.667    c0,5.888,4.779,10.667,10.667,10.667S224,272.555,224,266.667v-85.333C224,175.445,219.221,170.667,213.333,170.667z" fill="#000000" data-original="#000000" class=""></path>
	</g>
</g>
<g xmlns="http://www.w3.org/2000/svg">
	<g>
		<path d="M234.667,256H192c-5.888,0-10.667,4.779-10.667,10.667s4.779,10.667,10.667,10.667h42.667    c5.888,0,10.667-4.779,10.667-10.667S240.555,256,234.667,256z" fill="#000000" data-original="#000000" class=""></path>
	</g>
</g>
<g xmlns="http://www.w3.org/2000/svg">
	<g>
		<path d="M117.333,320H96c-5.888,0-10.667,4.779-10.667,10.667S90.112,341.333,96,341.333h10.667V416    c0,5.888,4.779,10.667,10.667,10.667S128,421.888,128,416v-85.333C128,324.779,123.221,320,117.333,320z" fill="#000000" data-original="#000000" class=""></path>
	</g>
</g>
<g xmlns="http://www.w3.org/2000/svg">
	<g>
		<path d="M138.667,405.333H96c-5.888,0-10.667,4.779-10.667,10.667c0,5.888,4.779,10.667,10.667,10.667h42.667    c5.888,0,10.667-4.779,10.667-10.667C149.333,410.112,144.555,405.333,138.667,405.333z" fill="#000000" data-original="#000000" class=""></path>
	</g>
</g>
<g xmlns="http://www.w3.org/2000/svg">
	<g>
		<path d="M213.333,320H192c-5.888,0-10.667,4.779-10.667,10.667s4.779,10.667,10.667,10.667h10.667V416    c0,5.888,4.779,10.667,10.667,10.667S224,421.888,224,416v-85.333C224,324.779,219.221,320,213.333,320z" fill="#000000" data-original="#000000" class=""></path>
	</g>
</g>
<g xmlns="http://www.w3.org/2000/svg">
	<g>
		<path d="M234.667,405.333H192c-5.888,0-10.667,4.779-10.667,10.667c0,5.888,4.779,10.667,10.667,10.667h42.667    c5.888,0,10.667-4.779,10.667-10.667C245.333,410.112,240.555,405.333,234.667,405.333z" fill="#000000" data-original="#000000" class=""></path>
	</g>
</g>
<g xmlns="http://www.w3.org/2000/svg">
	<g>
		<path d="M405.333,320H384c-5.888,0-10.667,4.779-10.667,10.667s4.779,10.667,10.667,10.667h10.667V416    c0,5.888,4.779,10.667,10.667,10.667c5.888,0,10.667-4.779,10.667-10.667v-85.333C416,324.779,411.221,320,405.333,320z" fill="#000000" data-original="#000000" class=""></path>
	</g>
</g>
<g xmlns="http://www.w3.org/2000/svg">
	<g>
		<path d="M426.667,405.333H384c-5.888,0-10.667,4.779-10.667,10.667c0,5.888,4.779,10.667,10.667,10.667h42.667    c5.888,0,10.667-4.779,10.667-10.667C437.333,410.112,432.555,405.333,426.667,405.333z" fill="#000000" data-original="#000000" class=""></path>
	</g>
</g>
<g xmlns="http://www.w3.org/2000/svg">
	<g>
		<path d="M405.333,170.667H384c-5.888,0-10.667,4.779-10.667,10.667S378.112,192,384,192h10.667v74.667    c0,5.888,4.779,10.667,10.667,10.667c5.888,0,10.667-4.779,10.667-10.667v-85.333C416,175.445,411.221,170.667,405.333,170.667z" fill="#000000" data-original="#000000" class=""></path>
	</g>
</g>
<g xmlns="http://www.w3.org/2000/svg">
	<g>
		<path d="M426.667,256H384c-5.888,0-10.667,4.779-10.667,10.667s4.779,10.667,10.667,10.667h42.667    c5.888,0,10.667-4.779,10.667-10.667S432.555,256,426.667,256z" fill="#000000" data-original="#000000" class=""></path>
	</g>
</g>
</g></svg>
