<?xml version="1.0" encoding="UTF-8"?>
<svg width="700pt" height="700pt" version="1.1" viewBox="0 0 700 700" xmlns="http://www.w3.org/2000/svg" xmlns:xlink="http://www.w3.org/1999/xlink">
 <defs>
  <symbol id="v" overflow="visible">
   <path d="m18.766-1.125c-0.96875 0.5-1.9805 0.875-3.0312 1.125-1.043 0.25781-2.1367 0.39062-3.2812 0.39062-3.3984 0-6.0898-0.94531-8.0781-2.8438-1.9922-1.9062-2.9844-4.4844-2.9844-7.7344 0-3.2578 0.99219-5.8359 2.9844-7.7344 1.9883-1.9062 4.6797-2.8594 8.0781-2.8594 1.1445 0 2.2383 0.13281 3.2812 0.39062 1.0508 0.25 2.0625 0.625 3.0312 1.125v4.2188c-0.98047-0.65625-1.9453-1.1406-2.8906-1.4531-0.94922-0.3125-1.9492-0.46875-3-0.46875-1.875 0-3.3516 0.60547-4.4219 1.8125-1.0742 1.1992-1.6094 2.8555-1.6094 4.9688 0 2.1055 0.53516 3.7617 1.6094 4.9688 1.0703 1.1992 2.5469 1.7969 4.4219 1.7969 1.0508 0 2.0508-0.14844 3-0.45312 0.94531-0.3125 1.9102-0.80078 2.8906-1.4688z"/>
  </symbol>
  <symbol id="b" overflow="visible">
   <path d="m13.734-11.141c-0.4375-0.19531-0.87109-0.34375-1.2969-0.4375-0.41797-0.10156-0.83984-0.15625-1.2656-0.15625-1.2617 0-2.2305 0.40625-2.9062 1.2188-0.67969 0.80469-1.0156 1.9531-1.0156 3.4531v7.0625h-4.8906v-15.312h4.8906v2.5156c0.625-1 1.3438-1.7266 2.1562-2.1875 0.82031-0.46875 1.8008-0.70312 2.9375-0.70312 0.16406 0 0.34375 0.011719 0.53125 0.03125 0.19531 0.011719 0.47656 0.039062 0.84375 0.078125z"/>
  </symbol>
  <symbol id="a" overflow="visible">
   <path d="m17.641-7.7031v1.4062h-11.453c0.125 1.1484 0.53906 2.0078 1.25 2.5781 0.70703 0.57422 1.7031 0.85938 2.9844 0.85938 1.0312 0 2.082-0.14844 3.1562-0.45312 1.082-0.3125 2.1914-0.77344 3.3281-1.3906v3.7656c-1.1562 0.4375-2.3125 0.76562-3.4688 0.98438-1.1562 0.22656-2.3125 0.34375-3.4688 0.34375-2.7734 0-4.9297-0.70312-6.4688-2.1094-1.5312-1.4062-2.2969-3.3789-2.2969-5.9219 0-2.5 0.75391-4.4609 2.2656-5.8906 1.5078-1.4375 3.582-2.1562 6.2188-2.1562 2.4062 0 4.332 0.73047 5.7812 2.1875 1.4453 1.4492 2.1719 3.3828 2.1719 5.7969zm-5.0312-1.625c0-0.92578-0.27344-1.6719-0.8125-2.2344-0.54297-0.57031-1.25-0.85938-2.125-0.85938-0.94922 0-1.7188 0.26562-2.3125 0.79688s-0.96484 1.2969-1.1094 2.2969z"/>
  </symbol>
  <symbol id="k" overflow="visible">
   <path d="m9.2188-6.8906c-1.0234 0-1.793 0.17188-2.3125 0.51562-0.51172 0.34375-0.76562 0.85547-0.76562 1.5312 0 0.625 0.20703 1.1172 0.625 1.4688 0.41406 0.34375 0.98828 0.51562 1.7188 0.51562 0.92578 0 1.7031-0.32812 2.3281-0.98438 0.63281-0.66406 0.95312-1.4922 0.95312-2.4844v-0.5625zm7.4688-1.8438v8.7344h-4.9219v-2.2656c-0.65625 0.92969-1.3984 1.6055-2.2188 2.0312-0.82422 0.41406-1.8242 0.625-3 0.625-1.5859 0-2.8711-0.45703-3.8594-1.375-0.99219-0.92578-1.4844-2.1289-1.4844-3.6094 0-1.7891 0.61328-3.1016 1.8438-3.9375 1.2383-0.84375 3.1797-1.2656 5.8281-1.2656h2.8906v-0.39062c0-0.76953-0.30859-1.332-0.92188-1.6875-0.61719-0.36328-1.5703-0.54688-2.8594-0.54688-1.0547 0-2.0312 0.10547-2.9375 0.3125-0.89844 0.21094-1.7305 0.52344-2.5 0.9375v-3.7344c1.0391-0.25 2.0859-0.44141 3.1406-0.57812 1.0625-0.13281 2.125-0.20312 3.1875-0.20312 2.7578 0 4.75 0.54688 5.9688 1.6406 1.2266 1.0859 1.8438 2.8555 1.8438 5.3125z"/>
  </symbol>
  <symbol id="d" overflow="visible">
   <path d="m7.7031-19.656v4.3438h5.0469v3.5h-5.0469v6.5c0 0.71094 0.14062 1.1875 0.42188 1.4375s0.83594 0.375 1.6719 0.375h2.5156v3.5h-4.1875c-1.9375 0-3.3125-0.39844-4.125-1.2031-0.80469-0.8125-1.2031-2.1797-1.2031-4.1094v-6.5h-2.4219v-3.5h2.4219v-4.3438z"/>
  </symbol>
  <symbol id="j" overflow="visible">
   <path d="m12.766-13.078v-8.2031h4.9219v21.281h-4.9219v-2.2188c-0.66797 0.90625-1.4062 1.5703-2.2188 1.9844s-1.7578 0.625-2.8281 0.625c-1.8867 0-3.4336-0.75-4.6406-2.25-1.2109-1.5-1.8125-3.4258-1.8125-5.7812 0-2.3633 0.60156-4.2969 1.8125-5.7969 1.207-1.5 2.7539-2.25 4.6406-2.25 1.0625 0 2 0.21484 2.8125 0.64062 0.82031 0.42969 1.5664 1.0859 2.2344 1.9688zm-3.2188 9.9219c1.0391 0 1.8359-0.37891 2.3906-1.1406 0.55078-0.76953 0.82812-1.8828 0.82812-3.3438 0-1.457-0.27734-2.5664-0.82812-3.3281-0.55469-0.76953-1.3516-1.1562-2.3906-1.1562-1.043 0-1.8398 0.38672-2.3906 1.1562-0.55469 0.76172-0.82812 1.8711-0.82812 3.3281 0 1.4609 0.27344 2.5742 0.82812 3.3438 0.55078 0.76172 1.3477 1.1406 2.3906 1.1406z"/>
  </symbol>
  <symbol id="i" overflow="visible">
   <path d="m10.5-3.1562c1.0508 0 1.8516-0.37891 2.4062-1.1406 0.55078-0.76953 0.82812-1.8828 0.82812-3.3438 0-1.457-0.27734-2.5664-0.82812-3.3281-0.55469-0.76953-1.3555-1.1562-2.4062-1.1562-1.0547 0-1.8594 0.38672-2.4219 1.1562-0.55469 0.77344-0.82812 1.8828-0.82812 3.3281 0 1.4492 0.27344 2.5586 0.82812 3.3281 0.5625 0.77344 1.3672 1.1562 2.4219 1.1562zm-3.25-9.9219c0.67578-0.88281 1.4219-1.5391 2.2344-1.9688 0.82031-0.42578 1.7656-0.64062 2.8281-0.64062 1.8945 0 3.4453 0.75 4.6562 2.25 1.207 1.5 1.8125 3.4336 1.8125 5.7969 0 2.3555-0.60547 4.2812-1.8125 5.7812-1.2109 1.5-2.7617 2.25-4.6562 2.25-1.0625 0-2.0078-0.21094-2.8281-0.625-0.8125-0.42578-1.5586-1.0859-2.2344-1.9844v2.2188h-4.8906v-21.281h4.8906z"/>
  </symbol>
  <symbol id="h" overflow="visible">
   <path d="m0.34375-15.312h4.8906l4.125 10.391 3.5-10.391h4.8906l-6.4375 16.766c-0.64844 1.6953-1.4023 2.8828-2.2656 3.5625-0.86719 0.6875-2 1.0312-3.4062 1.0312h-2.8438v-3.2188h1.5312c0.83203 0 1.4375-0.13672 1.8125-0.40625 0.38281-0.26172 0.67969-0.73047 0.89062-1.4062l0.14062-0.42188z"/>
  </symbol>
  <symbol id="g" overflow="visible">
   <path d="m0.14062-20.406h18.812v3.9688h-6.7656v16.438h-5.2656v-16.438h-6.7812z"/>
  </symbol>
  <symbol id="c" overflow="visible">
   <path d="m9.6406-12.188c-1.0859 0-1.9141 0.39062-2.4844 1.1719-0.57422 0.78125-0.85938 1.9062-0.85938 3.375s0.28516 2.5938 0.85938 3.375c0.57031 0.77344 1.3984 1.1562 2.4844 1.1562 1.0625 0 1.875-0.38281 2.4375-1.1562 0.57031-0.78125 0.85938-1.9062 0.85938-3.375s-0.28906-2.5938-0.85938-3.375c-0.5625-0.78125-1.375-1.1719-2.4375-1.1719zm0-3.5c2.6328 0 4.6914 0.71484 6.1719 2.1406 1.4766 1.418 2.2188 3.3867 2.2188 5.9062 0 2.5117-0.74219 4.4805-2.2188 5.9062-1.4805 1.418-3.5391 2.125-6.1719 2.125-2.6484 0-4.7148-0.70703-6.2031-2.125-1.4922-1.4258-2.2344-3.3945-2.2344-5.9062 0-2.5195 0.74219-4.4883 2.2344-5.9062 1.4883-1.4258 3.5547-2.1406 6.2031-2.1406z"/>
  </symbol>
  <symbol id="f" overflow="visible">
   <path d="m16.547-12.766c0.61328-0.94531 1.3477-1.6719 2.2031-2.1719 0.85156-0.5 1.7891-0.75 2.8125-0.75 1.7578 0 3.0977 0.54688 4.0156 1.6406 0.92578 1.0859 1.3906 2.6562 1.3906 4.7188v9.3281h-4.9219v-7.9844-0.35938c0.007813-0.13281 0.015625-0.32031 0.015625-0.5625 0-1.082-0.16406-1.8633-0.48438-2.3438-0.3125-0.48828-0.82422-0.73438-1.5312-0.73438-0.92969 0-1.6484 0.38672-2.1562 1.1562-0.51172 0.76172-0.77344 1.8672-0.78125 3.3125v7.5156h-4.9219v-7.9844c0-1.6953-0.14844-2.7852-0.4375-3.2656-0.29297-0.48828-0.8125-0.73438-1.5625-0.73438-0.9375 0-1.6641 0.38672-2.1719 1.1562-0.51172 0.76172-0.76562 1.8594-0.76562 3.2969v7.5312h-4.9219v-15.312h4.9219v2.2344c0.60156-0.86328 1.2891-1.5156 2.0625-1.9531 0.78125-0.4375 1.6406-0.65625 2.5781-0.65625 1.0625 0 2 0.25781 2.8125 0.76562 0.8125 0.51172 1.4258 1.2305 1.8438 2.1562z"/>
  </symbol>
  <symbol id="u" overflow="visible">
   <path d="m2.5781-20.406h14.203v3.9688h-8.9531v3.7969h8.4219v3.9844h-8.4219v8.6562h-5.25z"/>
  </symbol>
  <symbol id="t" overflow="visible">
   <path d="m2.3594-15.312h4.8906v15.312h-4.8906zm0-5.9688h4.8906v4h-4.8906z"/>
  </symbol>
  <symbol id="e" overflow="visible">
   <path d="m14.719-14.828v3.9844c-0.65625-0.45703-1.3242-0.79688-2-1.0156-0.66797-0.21875-1.3594-0.32812-2.0781-0.32812-1.3672 0-2.4336 0.40234-3.2031 1.2031-0.76172 0.79297-1.1406 1.9062-1.1406 3.3438 0 1.4297 0.37891 2.543 1.1406 3.3438 0.76953 0.79297 1.8359 1.1875 3.2031 1.1875 0.75781 0 1.4844-0.10938 2.1719-0.32812 0.6875-0.22656 1.3203-0.56641 1.9062-1.0156v4c-0.76172 0.28125-1.5391 0.48828-2.3281 0.625-0.78125 0.14453-1.5742 0.21875-2.375 0.21875-2.7617 0-4.9219-0.70703-6.4844-2.125-1.5547-1.4141-2.3281-3.3828-2.3281-5.9062 0-2.5312 0.77344-4.5039 2.3281-5.9219 1.5625-1.4141 3.7227-2.125 6.4844-2.125 0.80078 0 1.5938 0.074219 2.375 0.21875 0.78125 0.13672 1.5547 0.35156 2.3281 0.64062z"/>
  </symbol>
  <symbol id="s" overflow="visible">
   <path d="m2.3594-21.281h4.8906v11.594l5.625-5.625h5.6875l-7.4688 7.0312 8.0625 8.2812h-5.9375l-5.9688-6.3906v6.3906h-4.8906z"/>
  </symbol>
  <symbol id="r" overflow="visible">
   <path d="m12.422-21.281v3.2188h-2.7031c-0.6875 0-1.1719 0.125-1.4531 0.375-0.27344 0.25-0.40625 0.6875-0.40625 1.3125v1.0625h4.1875v3.5h-4.1875v11.812h-4.8906v-11.812h-2.4375v-3.5h2.4375v-1.0625c0-1.6641 0.46094-2.8984 1.3906-3.7031 0.92578-0.80078 2.3672-1.2031 4.3281-1.2031z"/>
  </symbol>
  <symbol id="q" overflow="visible">
   <path d="m17.75-9.3281v9.3281h-4.9219v-7.1094c0-1.3438-0.03125-2.2656-0.09375-2.7656s-0.16797-0.86719-0.3125-1.1094c-0.1875-0.3125-0.44922-0.55469-0.78125-0.73438-0.32422-0.17578-0.69531-0.26562-1.1094-0.26562-1.0234 0-1.8242 0.39844-2.4062 1.1875-0.58594 0.78125-0.875 1.8711-0.875 3.2656v7.5312h-4.8906v-21.281h4.8906v8.2031c0.73828-0.88281 1.5195-1.5391 2.3438-1.9688 0.83203-0.42578 1.75-0.64062 2.75-0.64062 1.7695 0 3.1133 0.54688 4.0312 1.6406 0.91406 1.0859 1.375 2.6562 1.375 4.7188z"/>
  </symbol>
  <symbol id="p" overflow="visible">
   <path d="m2.5781-20.406h5.875l7.4219 14v-14h4.9844v20.406h-5.875l-7.4219-14v14h-4.9844z"/>
  </symbol>
  <symbol id="o" overflow="visible">
   <path d="m2.1875-5.9688v-9.3438h4.9219v1.5312c0 0.83594-0.007813 1.875-0.015625 3.125-0.011719 1.25-0.015625 2.0859-0.015625 2.5 0 1.2422 0.03125 2.1328 0.09375 2.6719 0.070313 0.54297 0.17969 0.93359 0.32812 1.1719 0.20703 0.32422 0.47266 0.57422 0.79688 0.75 0.32031 0.16797 0.69141 0.25 1.1094 0.25 1.0195 0 1.8203-0.39062 2.4062-1.1719 0.58203-0.78125 0.875-1.8672 0.875-3.2656v-7.5625h4.8906v15.312h-4.8906v-2.2188c-0.74219 0.89844-1.5234 1.5586-2.3438 1.9844-0.82422 0.41406-1.7344 0.625-2.7344 0.625-1.7617 0-3.1055-0.53906-4.0312-1.625-0.92969-1.082-1.3906-2.6602-1.3906-4.7344z"/>
  </symbol>
  <symbol id="n" overflow="visible">
   <path d="m17.75-9.3281v9.3281h-4.9219v-7.1406c0-1.3203-0.03125-2.2344-0.09375-2.7344s-0.16797-0.86719-0.3125-1.1094c-0.1875-0.3125-0.44922-0.55469-0.78125-0.73438-0.32422-0.17578-0.69531-0.26562-1.1094-0.26562-1.0234 0-1.8242 0.39844-2.4062 1.1875-0.58594 0.78125-0.875 1.8711-0.875 3.2656v7.5312h-4.8906v-15.312h4.8906v2.2344c0.73828-0.88281 1.5195-1.5391 2.3438-1.9688 0.83203-0.42578 1.75-0.64062 2.75-0.64062 1.7695 0 3.1133 0.54688 4.0312 1.6406 0.91406 1.0859 1.375 2.6562 1.375 4.7188z"/>
  </symbol>
  <symbol id="m" overflow="visible">
   <path d="m2.5781-20.406h8.7344c2.5938 0 4.582 0.57812 5.9688 1.7344 1.3945 1.1484 2.0938 2.7891 2.0938 4.9219 0 2.1367-0.69922 3.7812-2.0938 4.9375-1.3867 1.1562-3.375 1.7344-5.9688 1.7344h-3.4844v7.0781h-5.25zm5.25 3.8125v5.7031h2.9219c1.0195 0 1.8047-0.25 2.3594-0.75 0.5625-0.5 0.84375-1.2031 0.84375-2.1094 0-0.91406-0.28125-1.6172-0.84375-2.1094-0.55469-0.48828-1.3398-0.73438-2.3594-0.73438z"/>
  </symbol>
  <symbol id="l" overflow="visible">
   <path d="m2.3594-15.312h4.8906v15.031c0 2.0508-0.49609 3.6172-1.4844 4.7031-0.98047 1.082-2.4062 1.625-4.2812 1.625h-2.4219v-3.2188h0.85938c0.92578 0 1.5625-0.21094 1.9062-0.625 0.35156-0.41797 0.53125-1.2461 0.53125-2.4844zm0-5.9688h4.8906v4h-4.8906z"/>
  </symbol>
 </defs>
 <g>
  <path d="m618.29 130.77c0.71094-4.9883 0.97656-8.9922-1.3867-11.359h-0.003906c-3.5898-1.9961-7.582-3.1562-11.68-3.3984 0.51953 3.4609 2.0312 6.6953 4.3516 9.3125 2.3203 2.6172 5.3477 4.5078 8.7188 5.4453z"/>
  <path d="m496.41 116.34c-4.3594 2.9961-8.4766 5.8242-9.0078 8.3711-0.48047 2.3359 1.5273 4.0039 4.8789 6.4805v0.003906c1.5898 1.0664 3.0469 2.3242 4.332 3.7461l1.0781 1.3398c4.0781 5.0898 11.621 14.578 20.453 14.215v-0.003907c2.0312 0.023438 3.9766-0.83203 5.332-2.3438 3.0469-3.4688 4.0742-10.949 3.0469-22.242-0.40625-6.8906-0.14062-13.805 0.79688-20.645 0.27734-2.5859 0.61328-5.6641 0.60156-7.3984-7.625 1.1875-14.734 4.5898-20.441 9.7891-3.4141 3.2305-7.1211 6.1367-11.07 8.6875z"/>
  <path d="m607.83 173.27c6.2344-6.8047 8.5039-20.977 9.0703-31.18 0.10938-1.9844 0.33594-3.8789 0.58594-5.7109v-0.003906c-0.18359-0.011718-0.36328-0.042968-0.54297-0.09375-4.6992-1.2188-8.8984-3.8789-12.012-7.6055-3.1133-3.7266-4.9844-8.332-5.3516-13.176 0.019531-0.18359 0.054688-0.36328 0.10938-0.54297-4.6094-0.52344-8.918-2.543-12.27-5.75-5.668-7.3711-11.906-25.512-45.355-25.512-60.684 0-70.301 66.332-123.59 90.141-15.391 6.875-32.574 21.246-60.66 26.645h0.003906c-13.871 2.0664-27.895 2.9414-41.914 2.6172-31.598 0-69.379-2.3398-92.734-2.6172-0.71875-0.007813-1.4258-0.011719-2.1328-0.011719-29.48-0.64062-58.238 9.1523-81.203 27.648-23.812 17.859-21.684 28.914-17.859 48.473 1.9141 9.7812 4.4648 16.582 5.7383 26.258 1.1602 0.27344 1.5547 0.13281 1.6094 0.085938 0.47656-0.33203 1.6094-2.0508 1.8984-10.703 0.066406-1.8828 0.10938-3.7148 0.14844-5.5234-0.27344-10.965 1.3125-21.895 4.6875-32.328 0.50391-1.457 2.0977-2.2305 3.5586-1.7266 1.457 0.50391 2.2344 2.0938 1.7344 3.5547-3.1914 9.8867-4.6719 20.242-4.3828 30.625-0.042969 1.832-0.082031 3.6875-0.14844 5.582-0.30469 9.0078-1.4531 13.098-4.25 15.082l0.003907 0.003906c-1.0898 0.76172-2.3945 1.1562-3.7266 1.1289-0.20312 0-0.38672-0.046874-0.58594-0.058593 0.54688 12.637-0.27734 25.293-2.457 37.75-6.3789 42.52-34.441 59.953-39.969 68.457-5.5273 8.5039-5.1016 48.898-3.8281 60.805 1.207 11.277 5.1094 13.777 21.785 14.371-1.3125-3.7344-3.2578-7.2188-5.75-10.293-0.95703-1.3789-1.9141-2.7617-2.7891-4.1133-0.83984-1.293-0.46875-3.0273 0.82422-3.8672s3.0234-0.47656 3.8672 0.81641c0.85156 1.3086 1.7773 2.6406 2.7031 3.9766 3.293 3.8594 5.625 8.4453 6.8125 13.375 0.003906 0.058594-0.023438 0.11328-0.023438 0.17188l0.003906 0.003906c4.7031 0.45703 9.418-0.79688 13.277-3.5312-2.8672-6.6211-8.1758-11.879-14.82-14.691-6.293-2.5156-6.293-11.293-6.293-19.035 0-8.9844 7.2969-22.855 18.578-35.328 6.0859-6.7266 16.391-16.094 27.293-26.016 8.3828-7.6172 17.051-15.5 23.543-21.996 10.797-11.047 20.816-22.832 29.988-35.262l2.0078-2.625 0.003906-0.011719h0.003907c9.6875-12.758 16.852-27.25 21.113-42.695 0.16406-0.72656 0.61719-1.3555 1.2539-1.7461 0.63672-0.38672 1.4023-0.50391 2.125-0.32031 1.5039 0.36719 2.4258 1.8789 2.0664 3.3789-2.8945 11.258-7.5039 22.004-13.664 31.859 9.0898-3.4492 21.168-3.1602 36.711 0.73828 19.18 3.2383 44.379 12.844 68.34 17.203 25.371 4.6133 68 7.7227 83.008 8.7227-0.12109-10.598 1.8789-21.113 5.8828-30.926 1.3789-4.25 2.6758-8.2617 3.5938-11.934 0.375-1.5 1.8945-2.4141 3.3984-2.0391 1.5 0.375 2.4141 1.8945 2.0391 3.3945-0.96875 3.8555-2.293 7.957-3.7031 12.305-3.3828 10.449-7.2148 22.297-5.3672 30.562v0.003906c4.3828 13.23 6.918 27.008 7.5234 40.934 2.2695 29.48 3.4023 77.668 3.4023 77.668 1.8906 9.0469 10.773 20.41 13.605 20.977 3.9102 0.36719 7.8398 0.51172 11.766 0.42578 0.91016 0 1.8359-0.011719 2.7578-0.019531 0-0.039063-0.023438-0.070313-0.023438-0.10938 0.042969-4.8711-2.0195-9.5234-5.6602-12.766-1.25-0.90625-1.5273-2.6562-0.625-3.9062 0.90625-1.2539 2.6562-1.5352 3.9062-0.63281 5.1484 4.25 8.082 10.609 7.9805 17.281l-0.007813 0.03125c2.375-0.070313 4.5-0.17188 5.9844-0.30469 1.3789-0.125 3.1484-0.35156 5.0273-0.67578h0.003907c0.082031-0.22656 0.19531-0.44531 0.33594-0.64062 1.2539-2.1016 1.6602-4.5977 1.1367-6.9844-0.54688-3.9375-2.6914-7.4766-5.9297-9.7773-1.1641-0.77734-2.3516-1.5039-3.5273-2.2188-6.5078-3.9922-13.887-8.5156-14.301-20.422-0.43359-12.539 4.6797-76.016 6.832-91.891 1.6562-12.273 10.195-22.625 17.051-30.941v-0.003906c2.0977-2.4375 4.0703-4.9805 5.9062-7.6211 0.40234-0.625 1.0391-1.0625 1.7656-1.2188 0.72656-0.15234 1.4844-0.011718 2.1094 0.39453 0.62109 0.40234 1.0586 1.0391 1.2109 1.7656 0.15625 0.72656 0.011719 1.4883-0.39453 2.1094-1.9453 2.8203-4.043 5.5352-6.2773 8.1328-6.4023 7.7695-14.379 17.445-15.828 28.137-2.0742 15.336-7.1914 78.953-6.7773 90.941 0.30469 8.9023 5.3047 11.965 11.625 15.836 1.2344 0.76172 2.4844 1.5273 3.707 2.3398h0.003906c4.5664 3.1602 7.5938 8.0898 8.3594 13.59 0.36328 2.2695 0.28516 4.5859-0.23438 6.8242 4.4766-1.4844 8.3086-3.7773 8.6055-7.3125 0.375-5.1445-1.9961-10.105-6.2344-13.043-2.8359-2.2656-5.668 0.56641-11.906-9.6367s-3.9688-21.543-1.1367-58.961h0.003906c1.4336-21.641 6.4141-42.898 14.738-62.926 16.43-8.6289 30.012-21.82 39.121-37.984 7.625-13.785 5.668-40.25 12.473-60.094 5.5312-16.141 9.5664-45.402 15.152-55.762l-0.003906-0.003907c-8.1719-3.2227-16.02-7.2031-23.449-11.887-1.3047-0.82812-1.6914-2.5547-0.86719-3.8594 0.82812-1.3047 2.5586-1.6914 3.8633-0.86328 8.4258 5.2969 17.395 9.6797 26.75 13.078 3.9531 0.75 7.8164 1.918 11.523 3.4766-2.1211-7.8359-1.1445-16.191 2.7305-23.328 1.8906-3.0508 3.7344-5.7656 5.4648-8.2969v0.003906c3.6641-4.7539 6.5625-10.047 8.5938-15.691 0.45312-1.4688 2.0078-2.3008 3.4805-1.8594 1.4727 0.44141 2.3125 1.9922 1.8789 3.4688-2.1797 6.1992-5.3281 12.02-9.3281 17.234-1.6836 2.4648-3.4844 5.1133-5.332 8.0938-3.6641 7.1211-3.9336 15.516-0.73438 22.855 2.5273 0.98438 5.1914 1.5703 7.8945 1.75 6.1836-0.67969 12.066-3.0312 17.008-6.8047 2.8359-1.6992 9.0742 1.1328 15.309-5.668zm-74.941-67.414c-0.88672 6.4727-1.1523 13.016-0.78516 19.539 1.2031 13.238-0.20312 21.645-4.418 26.441h-0.003906c-2.3594 2.6797-5.7461 4.2227-9.3164 4.25-0.23438 0.003906-0.46484 0.011718-0.69531 0.011718-11.254 0-19.742-10.582-24.348-16.32l-1.043-1.3008h-0.007812c-0.99609-1.0469-2.1055-1.9805-3.3086-2.7852-3.4961-2.5742-8.2812-6.1016-7.0391-12.113 0.98047-4.7617 5.7695-8.0508 11.316-11.863v0.003906c3.6641-2.3633 7.1055-5.0547 10.281-8.0352 7.2305-6.8359 16.652-10.887 26.59-11.426 4.1797 0.60938 3.6523 5.4961 2.7773 13.598zm33.414 21.207c-3.0391 0-5.7773-1.8281-6.9375-4.6367-1.1641-2.8047-0.52344-6.0352 1.625-8.1836 2.1484-2.1484 5.3789-2.793 8.1875-1.6289 2.8086 1.1602 4.6367 3.8984 4.6367 6.9375 0 4.1484-3.3633 7.5117-7.5117 7.5117z"/>
  <path d="m226.74 325.31c-7.5234 0.082031-14.598 3.5977-19.207 9.543l-2.0664 2.707h-0.003906c-9.3242 12.633-19.512 24.605-30.488 35.832-6.5859 6.5898-15.301 14.516-23.734 22.18-10.324 9.3906-21.004 19.102-26.906 25.625-10.25 11.324-17.133 24.012-17.133 31.57 0 6.7109 0.21484 12.812 2.7734 13.84v0.003906c7.4648 3.2266 13.57 8.9531 17.273 16.191 2.1836-0.015625 5.3008-0.050781 8.5547-0.125v-0.003906c-2.0898-4.2539-4.9141-8.1133-8.3398-11.391-0.55078-0.5-0.87891-1.1953-0.91406-1.9375-0.035156-0.74219 0.22266-1.4688 0.72266-2.0156 1.0391-1.1445 2.8086-1.2305 3.9531-0.19141 4.5039 4.1484 8 9.2656 10.234 14.965 0.007812 0.13281 0.003906 0.26172-0.007813 0.39063 1.5742-0.066407 3.0625-0.14844 4.3359-0.24609 7.3711-0.56641 5.1016-14.172-2.8359-17.008-7.9375-2.8359-7.9375-9.0703-6.2344-28.348 1.6992-19.273 45.918-61.793 62.359-78.234 12.922-12.918 17.117-26.855 27.664-33.348z"/>
 </g>
</svg>
